# Blender 4.4.3
# www.blender.org
o Cube
v -0.509484 0.065149 0.837968
v -0.509484 9.104562 0.837968
v -0.509484 0.065149 -0.206598
v -0.509484 9.104562 -0.206598
v 0.494662 0.065149 0.837968
v 0.494662 9.104562 0.837968
v 0.494662 0.065149 -0.206598
v 0.494662 9.104562 -0.206598
v 0.494661 8.286650 0.793092
v 2.673846 8.799038 0.585891
v 0.494661 9.036705 0.793092
v 1.034256 8.799038 0.585891
v 0.494661 8.286650 -0.154932
v 2.673846 8.491203 0.585891
v 0.494661 9.036705 -0.154932
v 1.034256 8.491203 0.585891
v 1.034256 8.444950 0.634791
v 0.875955 8.286650 0.793092
v 1.034256 8.878405 0.634791
v 0.875955 9.036705 0.793092
v 1.034256 8.444950 0.003369
v 0.875955 8.286650 -0.154932
v 1.034256 8.878405 0.003369
v 0.875955 9.036705 -0.154932
v 1.034256 8.491203 0.063162
v 2.673846 8.491203 0.063162
v 1.034256 8.799038 0.063162
v 2.673846 8.799038 0.063162
v 2.563956 8.491203 0.530562
v 2.563956 8.282378 0.530562
v 2.563956 8.491203 0.153939
v 2.563956 8.282378 0.153939
v 2.130659 8.491204 0.530562
v 2.130659 8.282379 0.530562
v 2.130659 8.491204 0.153939
v 2.130659 8.282379 0.153939
vn -1.0000 -0.0000 -0.0000
vn -0.0000 -0.0000 -1.0000
vn 1.0000 -0.0000 -0.0000
vn -0.0000 -0.0000 1.0000
vn -0.0000 -1.0000 -0.0000
vn -0.0000 1.0000 -0.0000
vn 0.7071 -0.0000 0.7071
vn 0.7071 0.7071 -0.0000
vn 0.7071 -0.0000 -0.7071
vn 0.7071 -0.7071 -0.0000
vt 0.625000 0.000000
vt 0.375000 0.250000
vt 0.375000 0.000000
vt 0.625000 0.250000
vt 0.375000 0.500000
vt 0.625000 0.500000
vt 0.375000 0.750000
vt 0.625000 0.750000
vt 0.375000 1.000000
vt 0.125000 0.750000
vt 0.125000 0.500000
vt 0.875000 0.500000
vt 0.833255 0.552763
vt 0.666745 0.697237
vt 0.666745 0.552763
vt 0.551658 0.500000
vt 0.551658 0.000000
vt 0.551658 0.250000
vt 0.875000 0.750000
vt 0.833255 0.697237
vt 0.551658 0.750000
vt 0.625000 1.000000
vt 0.551658 1.000000
s 0
f 2/1/1 3/2/1 1/3/1
f 4/4/2 7/5/2 3/2/2
f 8/6/3 5/7/3 7/5/3
f 6/8/4 1/9/4 5/7/4
f 7/5/5 1/10/5 3/11/5
f 4/12/6 6/8/6 8/6/6
f 19/13/3 21/14/3 23/15/3
f 24/16/2 13/7/2 15/5/2
f 14/1/4 12/2/4 16/3/4
f 18/17/4 11/2/4 9/3/4
f 15/5/1 9/10/1 11/11/1
f 20/18/6 15/5/6 11/2/6
f 19/13/7 18/19/7 17/20/7
f 23/15/8 20/12/8 19/13/8
f 21/14/9 24/16/9 23/15/9
f 17/20/10 22/8/10 21/14/10
f 22/21/5 9/9/5 13/7/5
f 10/4/6 27/5/6 12/2/6
f 28/6/2 25/7/2 27/5/2
f 26/8/5 16/9/5 25/7/5
f 27/5/1 16/10/1 12/11/1
f 10/12/3 26/8/3 28/6/3
f 30/1/3 31/2/3 29/3/3
f 31/2/2 36/6/2 35/5/2
f 36/6/1 33/7/1 35/5/1
f 34/8/4 29/9/4 33/7/4
f 35/5/6 29/10/6 31/11/6
f 32/12/5 34/8/5 36/6/5
f 2/1/1 4/4/1 3/2/1
f 4/4/2 8/6/2 7/5/2
f 8/6/3 6/8/3 5/7/3
f 6/8/4 2/22/4 1/9/4
f 7/5/5 5/7/5 1/10/5
f 4/12/6 2/19/6 6/8/6
f 19/13/3 17/20/3 21/14/3
f 24/16/2 22/21/2 13/7/2
f 14/1/4 10/4/4 12/2/4
f 18/17/4 20/18/4 11/2/4
f 15/5/1 13/7/1 9/10/1
f 20/18/6 24/16/6 15/5/6
f 19/13/7 20/12/7 18/19/7
f 23/15/8 24/6/8 20/12/8
f 21/14/9 22/21/9 24/16/9
f 17/20/10 18/19/10 22/8/10
f 22/21/5 18/23/5 9/9/5
f 10/4/6 28/6/6 27/5/6
f 28/6/2 26/8/2 25/7/2
f 26/8/5 14/22/5 16/9/5
f 27/5/1 25/7/1 16/10/1
f 10/12/3 14/19/3 26/8/3
f 30/1/3 32/4/3 31/2/3
f 31/2/2 32/4/2 36/6/2
f 36/6/1 34/8/1 33/7/1
f 34/8/4 30/22/4 29/9/4
f 35/5/6 33/7/6 29/10/6
f 32/12/5 30/19/5 34/8/5
